<svg width="20" height="23" viewBox="0 0 20 23" fill="#fff" xmlns="http://www.w3.org/2000/svg">
<path d="M9.6709 4.85869C9.70131 3.91513 9.96121 2.52515 10.8657 1.61199C11.7054 0.764353 12.7275 0.351236 13.3641 0.162375C13.6099 0.0894626 13.8457 0.274791 13.8336 0.530865C13.7909 1.43412 13.5534 2.78139 12.9406 3.50315C12.3629 4.18353 11.4336 5.08576 10.0725 5.23756C9.84971 5.26241 9.66368 5.08274 9.6709 4.85869Z" fill="white"/>
<path d="M12.0016 22.1289C12.6552 22.3792 13.3161 22.6324 13.9142 22.6324C15.1936 22.6324 18.9192 19.6804 19.0534 16.6144C19.0603 16.457 18.9663 16.3164 18.8287 16.2394C17.8811 15.7091 16.3335 14.3886 16.2797 12.4677C16.2169 10.2289 17.3409 8.45082 18.1916 7.71529C18.3831 7.54975 18.4488 7.25786 18.2779 7.0712C17.5039 6.22593 15.9468 5.06326 14.5261 5.0918C13.4925 5.11256 12.5612 5.49758 11.7621 5.82797C11.149 6.08144 10.6137 6.30276 10.1696 6.30276C9.74895 6.30276 9.24399 6.08286 8.66444 5.83048C7.88396 5.4906 6.96819 5.0918 5.9409 5.0918C4.03805 5.0918 0.278329 6.66972 0.27832 12.7612C0.278316 15.9904 3.61194 22.718 6.42496 22.6324C7.03239 22.6324 7.68155 22.3809 8.32571 22.1313C8.96004 21.8855 9.58953 21.6416 10.1696 21.6416C10.7296 21.6416 11.3621 21.8839 12.0016 22.1289Z" fill="white"/>
</svg>
