<svg width="22" height="28" viewBox="0 0 22 28" fill="#010102" xmlns="http://www.w3.org/2000/svg">
<path d="M10.66 27.17C12.4 27.17 13.8 25.76 13.8 24.03H7.51999C7.51999 25.77 8.92999 27.17 10.66 27.17C10.67 27.17 10.67 27.17 10.66 27.17Z"/>
<path d="M20.09 18.79L19.42 13.03C19.42 8.89001 16.52 5.31 12.47 4.46V2.22001C12.45 1.23001 11.63 0.439997 10.63 0.459997C9.65999 0.479997 8.89 1.26001 8.87 2.22001V4.46C4.81999 5.31 1.91998 8.89001 1.91998 13.03L1.24998 18.79C0.519985 19.14 0.0599878 19.87 0.0499878 20.68V20.88C0.0499878 22.04 0.989994 22.12 2.14999 22.12H19.18C20.34 22.12 21.28 22.04 21.28 20.88V20.68C21.28 19.87 20.82 19.14 20.09 18.79Z"/>
</svg>
