<svg width="38" height="28" viewBox="0 0 38 28" fill="#010102" xmlns="http://www.w3.org/2000/svg">
<path d="M35.08 22.364H11.23C9.81999 22.364 8.67999 23.504 8.67999 24.914C8.67999 26.324 9.81999 27.464 11.23 27.464H35.08C36.49 27.464 37.63 26.324 37.63 24.914C37.63 23.504 36.49 22.364 35.08 22.364Z"/>
<path d="M35.08 11.614H11.23C9.81999 11.614 8.67999 12.754 8.67999 14.164C8.67999 15.574 9.81999 16.714 11.23 16.714H35.08C36.49 16.714 37.63 15.574 37.63 14.164C37.63 12.754 36.49 11.614 35.08 11.614Z"/>
<path d="M35.08 0.873993H11.23C9.81999 0.873993 8.67999 2.01401 8.67999 3.42401C8.67999 4.83401 9.81999 5.974 11.23 5.974H35.08C36.49 5.974 37.63 4.83401 37.63 3.42401C37.63 2.01401 36.49 0.873993 35.08 0.873993Z"/>
<path d="M3.23001 0.873993C4.64001 0.873993 5.77001 2.014 5.77001 3.414C5.77001 4.824 4.63001 5.95401 3.23001 5.95401C1.82001 5.95401 0.690007 4.814 0.690007 3.414C0.680007 2.014 1.82001 0.873993 3.23001 0.873993Z"/>
<path d="M3.23 11.704C4.64 11.704 5.77 12.844 5.77 14.244C5.77 15.654 4.63 16.784 3.23 16.784C1.82 16.784 0.690002 15.644 0.690002 14.244C0.690002 12.844 1.82 11.704 3.23 11.704Z"/>
<path d="M3.23 22.524C4.64 22.524 5.78 23.664 5.78 25.064C5.78 26.474 4.64 27.614 3.24 27.614C1.83 27.614 0.690002 26.474 0.690002 25.074C0.690002 23.664 1.82 22.534 3.23 22.524Z"/>
</svg>
