<svg width="16" height="21" viewBox="0 0 16 21" fill="#545454" xmlns="http://www.w3.org/2000/svg">
<path fill-rule="evenodd" clip-rule="evenodd" d="M3.30652 6.40612L3.64958 9.49368L2.95535 9.5491C1.98726 9.62639 1.19676 10.3541 1.03982 11.3125C0.678132 13.5214 0.678132 15.7745 1.03982 17.9834C1.19676 18.9418 1.98726 19.6695 2.95535 19.7468L4.45148 19.8662C6.81362 20.0548 9.18704 20.0548 11.5492 19.8662L13.0453 19.7468C14.0134 19.6695 14.8039 18.9418 14.9608 17.9834C15.3225 15.7745 15.3225 13.5214 14.9608 11.3125C14.8039 10.3541 14.0134 9.62639 13.0453 9.5491L12.351 9.49368L12.694 6.40612C12.7345 6.04214 12.7345 5.6748 12.694 5.31083L12.6713 5.10593C12.4298 2.93254 10.7212 1.21288 8.54941 0.957377C8.18458 0.914456 7.81598 0.914456 7.45116 0.957377C5.27937 1.21288 3.57077 2.93254 3.32928 5.10593L3.30652 5.31083C3.26607 5.6748 3.26607 6.04214 3.30652 6.40612ZM8.37414 2.4471C8.12576 2.41788 7.8748 2.41788 7.62642 2.4471C6.14779 2.62106 4.98452 3.79186 4.82011 5.27158L4.79734 5.47647C4.76913 5.73036 4.76913 5.98659 4.79734 6.24047L5.14614 9.37967C7.04695 9.25776 8.95362 9.25776 10.8544 9.37966L11.2032 6.24047C11.2314 5.98659 11.2314 5.73036 11.2032 5.47647L11.1805 5.27158C11.016 3.79186 9.85277 2.62106 8.37414 2.4471ZM8.00031 13.1479C7.17188 13.1479 6.50031 13.8195 6.50031 14.6479C6.50031 15.4764 7.17188 16.1479 8.00031 16.1479C8.82873 16.1479 9.50031 15.4764 9.50031 14.6479C9.50031 13.8195 8.82873 13.1479 8.00031 13.1479Z" fill="#545454"/>
</svg>
