<svg width="21" height="18" viewBox="0 0 21 18" fill="none" xmlns="http://www.w3.org/2000/svg">
<path d="M8.15574 9.54167C8.15574 8.24725 9.20508 7.19792 10.4995 7.19792C11.7939 7.19792 12.8432 8.24725 12.8432 9.54167C12.8432 10.8361 11.7939 11.8854 10.4995 11.8854C9.20508 11.8854 8.15574 10.8361 8.15574 9.54167Z" fill="#303030"/>
<path fill-rule="evenodd" clip-rule="evenodd" d="M5.78455 3.96088C5.78455 2.15304 7.2501 0.6875 9.05794 0.6875H11.941C13.7488 0.6875 15.2144 2.15304 15.2144 3.96088C15.2144 3.97634 15.2262 3.98921 15.2417 3.99046L17.5642 4.17908C18.6045 4.26357 19.4601 5.03288 19.6543 6.05843C20.1498 8.67541 20.1867 11.3586 19.7635 13.9882L19.6622 14.6176C19.4712 15.804 18.4948 16.7066 17.2971 16.8038L15.2738 16.9681C12.0961 17.2262 8.90279 17.2262 5.72511 16.9681L3.70185 16.8038C2.50416 16.7066 1.52774 15.804 1.33678 14.6176L1.23548 13.9882C0.812219 11.3586 0.849166 8.67541 1.34467 6.05843C1.53885 5.03288 2.39444 4.26357 3.43478 4.17908L5.75728 3.99046C5.77269 3.98921 5.78455 3.97634 5.78455 3.96088ZM10.4995 5.63542C8.34213 5.63542 6.59324 7.3843 6.59324 9.54167C6.59324 11.699 8.34213 13.4479 10.4995 13.4479C12.6569 13.4479 14.4057 11.699 14.4057 9.54167C14.4057 7.3843 12.6569 5.63542 10.4995 5.63542Z" fill="#303030"/>
</svg>
