<svg width="14" height="4" viewBox="0 0 14 4" fill="none" xmlns="http://www.w3.org/2000/svg">
<path d="M2 0.75C1.30964 0.75 0.75 1.30964 0.75 2C0.75 2.69036 1.30964 3.25 2 3.25C2.69036 3.25 3.25 2.69036 3.25 2C3.25 1.30964 2.69036 0.75 2 0.75Z" fill="white"/>
<path d="M5.75 2C5.75 1.30964 6.30964 0.75 7 0.75C7.69036 0.75 8.25 1.30964 8.25 2C8.25 2.69036 7.69036 3.25 7 3.25C6.30964 3.25 5.75 2.69036 5.75 2Z" fill="white"/>
<path d="M10.75 2C10.75 1.30964 11.3096 0.75 12 0.75C12.6904 0.75 13.25 1.30964 13.25 2C13.25 2.69036 12.6904 3.25 12 3.25C11.3096 3.25 10.75 2.69036 10.75 2Z" fill="white"/>
</svg>
