<svg width="21" height="15" viewBox="0 0 21 15" fill="#545454" xmlns="http://www.w3.org/2000/svg">
<path d="M10.4998 5.15625C9.20542 5.15625 8.15609 6.20558 8.15609 7.5C8.15609 8.79442 9.20542 9.84375 10.4998 9.84375C11.7943 9.84375 12.8436 8.79442 12.8436 7.5C12.8436 6.20558 11.7943 5.15625 10.4998 5.15625Z" fill="#545454"/>
<path fill-rule="evenodd" clip-rule="evenodd" d="M10.4998 0.729164C7.77299 0.729164 5.32068 1.82436 3.5536 3.18058C2.66892 3.85957 1.943 4.61367 1.43368 5.34758C0.934067 6.06751 0.604004 6.82451 0.604004 7.5C0.604004 8.17548 0.934067 8.93249 1.43368 9.65241C1.943 10.3863 2.66892 11.1404 3.5536 11.8194C5.32068 13.1756 7.77299 14.2708 10.4998 14.2708C13.2267 14.2708 15.679 13.1756 17.4461 11.8194C18.3308 11.1404 19.0567 10.3863 19.566 9.65241C20.0656 8.93249 20.3957 8.17548 20.3957 7.5C20.3957 6.82451 20.0656 6.06751 19.566 5.34758C19.0567 4.61367 18.3308 3.85957 17.4461 3.18058C15.679 1.82436 13.2267 0.729164 10.4998 0.729164ZM6.59359 7.5C6.59359 5.34264 8.34247 3.59375 10.4998 3.59375C12.6572 3.59375 14.4061 5.34264 14.4061 7.5C14.4061 9.65736 12.6572 11.4062 10.4998 11.4062C8.34247 11.4062 6.59359 9.65736 6.59359 7.5Z" fill="#545454"/>
</svg>
