<svg width="24" height="24" viewBox="0 0 24 24" fill="#fff" xmlns="http://www.w3.org/2000/svg">
<path d="M5.29555 22.1991C5.19667 22.2978 5.31501 22.4583 5.43792 22.3918C8.57363 20.6957 12.8072 18.4041 16.3851 16.4609C16.4566 16.4221 16.4697 16.3255 16.4117 16.2684L13.8906 13.7861C13.8432 13.7394 13.7671 13.7397 13.72 13.7867L5.29555 22.1991Z" fill="white"/>
<path d="M13.7122 11.0556C13.7596 11.1025 13.8359 11.1023 13.8831 11.0552L16.4052 8.53541C16.4626 8.47807 16.4486 8.38162 16.3772 8.34309L15.1414 7.67601C13.6555 6.87402 11.6645 5.79948 9.6438 4.70933C8.13051 3.89292 6.60215 3.06858 5.25717 2.34355C5.13401 2.27716 5.0151 2.43777 5.11449 2.53625L13.7122 11.0556Z" fill="white"/>
<path d="M0.480957 1.87233C0.480957 1.59087 0.523533 1.35524 0.597608 1.16114C0.674156 0.960559 0.926828 0.945189 1.07933 1.0963L12.4249 12.3384C12.4727 12.3857 12.4728 12.4628 12.4252 12.5103L1.03834 23.8633C0.87059 24.0306 0.593309 23.9901 0.539661 23.7594C0.50072 23.5919 0.480957 23.4062 0.480957 23.2066V1.87233Z" fill="white"/>
<path d="M18.2762 15.4324C18.2294 15.4578 18.1714 15.4497 18.1334 15.4123L15.1798 12.5049C15.1317 12.4576 15.1316 12.3802 15.1794 12.3327L18.1489 9.38044C18.1869 9.34264 18.2457 9.33453 18.2927 9.3602C20.8203 10.7387 22.7921 11.8091 23.3932 12.1271C23.4157 12.139 23.4331 12.157 23.4433 12.1803C23.4981 12.3068 23.5108 12.4326 23.4921 12.5536C23.4867 12.5886 23.464 12.6174 23.4327 12.6339C23.0869 12.8161 21.9292 13.4458 20.3167 14.3228L20.3068 14.3282C19.6897 14.6639 19.0062 15.0357 18.2762 15.4324Z" fill="white"/>
</svg>
