<svg width="21" height="21" viewBox="0 0 21 15" fill="none" xmlns="http://www.w3.org/2000/svg">
<path d="M18.8277 11.3052H6.35545C6.00231 11.3052 5.66363 11.4461 5.41392 11.697C5.16421 11.9478 5.02393 12.288 5.02393 12.6427C5.02393 12.9974 5.16421 13.3376 5.41392 13.5885C5.66363 13.8393 6.00231 13.9802 6.35545 13.9802H18.8277C19.1808 13.9802 19.5195 13.8393 19.7692 13.5885C20.0189 13.3376 20.1592 12.9974 20.1592 12.6427C20.1592 12.288 20.0189 11.9478 19.7692 11.697C19.5195 11.4461 19.1808 11.3052 18.8277 11.3052Z" fill="#545454"/>
<path d="M18.8275 5.66022H6.35526C6.00191 5.66022 5.66303 5.80121 5.41317 6.05218C5.16331 6.30315 5.02295 6.64354 5.02295 6.99847C5.02295 7.3534 5.16331 7.69379 5.41317 7.94476C5.66303 8.19573 6.00191 8.33673 6.35526 8.33673H18.8275C19.1808 8.33673 19.5197 8.19573 19.7695 7.94476C20.0194 7.69379 20.1598 7.3534 20.1598 6.99847C20.1598 6.64354 20.0194 6.30315 19.7695 6.05218C19.5197 5.80121 19.1808 5.66022 18.8275 5.66022Z" fill="#545454"/>
<path d="M18.8275 0.0145569H6.35526C6.00191 0.0145569 5.66303 0.15556 5.41317 0.406532C5.16331 0.657503 5.02295 0.997884 5.02295 1.35281C5.02295 1.70774 5.16331 2.04813 5.41317 2.2991C5.66303 2.55008 6.00191 2.69107 6.35526 2.69107H18.8275C19.1808 2.69107 19.5197 2.55008 19.7695 2.2991C20.0194 2.04813 20.1598 1.70774 20.1598 1.35281C20.1598 0.997884 20.0194 0.657503 19.7695 0.406532C19.5197 0.15556 19.1808 0.0145569 18.8275 0.0145569Z" fill="#545454"/>
<path d="M2.16984 0.0154421C2.43307 0.0152886 2.69044 0.0935508 2.90938 0.240336C3.12833 0.387122 3.29901 0.595829 3.39985 0.840066C3.50069 1.0843 3.52716 1.3531 3.4759 1.61244C3.42463 1.87179 3.29796 2.11004 3.11188 2.29706C2.9258 2.48408 2.68868 2.61146 2.43051 2.6631C2.17235 2.71474 1.90474 2.68831 1.66153 2.58716C1.41832 2.48601 1.21043 2.31469 1.06417 2.09485C0.917915 1.87501 0.839844 1.61655 0.839844 1.35214C0.839742 1.17664 0.874073 1.00284 0.940866 0.84067C1.00766 0.678498 1.10561 0.531125 1.22912 0.40699C1.35263 0.282856 1.49928 0.184385 1.6607 0.117199C1.82211 0.0500143 1.99512 0.0154421 2.16984 0.0154421Z" fill="#545454"/>
<path d="M2.16984 5.70447C2.4331 5.70431 2.69049 5.7826 2.90946 5.92942C3.12842 6.07624 3.2991 6.285 3.39992 6.52928C3.50074 6.77356 3.52716 7.0424 3.47584 7.30176C3.42451 7.56113 3.29776 7.79937 3.11161 7.98636C2.92545 8.17335 2.68826 8.30068 2.43004 8.35223C2.17183 8.40378 1.90419 8.37724 1.66099 8.27597C1.41779 8.17471 1.20996 8.00326 1.0638 7.78332C0.91763 7.56338 0.839691 7.30484 0.839844 7.0404C0.839844 6.86496 0.874252 6.69124 0.94109 6.52916C1.00793 6.36708 1.10589 6.21981 1.22939 6.09576C1.35289 5.9717 1.49951 5.8733 1.66087 5.80617C1.82223 5.73903 1.99518 5.70447 2.16984 5.70447Z" fill="#545454"/>
<path d="M2.16984 11.3912C2.43307 11.3911 2.69044 11.4694 2.90938 11.6161C3.12833 11.7629 3.29901 11.9716 3.39985 12.2159C3.50069 12.4601 3.52716 12.7289 3.4759 12.9882C3.42463 13.2476 3.29796 13.4858 3.11188 13.6728C2.9258 13.8599 2.68868 13.9873 2.43051 14.0389C2.17235 14.0905 1.90474 14.0641 1.66153 13.963C1.41832 13.8618 1.21043 13.6905 1.06417 13.4707C0.917914 13.2508 0.839844 12.9923 0.839844 12.7279C0.839844 12.3735 0.979946 12.0337 1.22934 11.783C1.47874 11.5324 1.81703 11.3914 2.16984 11.3912Z" fill="#545454"/>
</svg>
