<svg width="16" height="16" viewBox="0 0 16 16" fill="none" xmlns="http://www.w3.org/2000/svg">
<path fill-rule="evenodd" clip-rule="evenodd" d="M0.708496 8.00001C0.708496 3.97293 3.97309 0.708344 8.00016 0.708344C12.0272 0.708344 15.2918 3.97293 15.2918 8.00001C15.2918 12.0271 12.0272 15.2917 8.00016 15.2917C3.97309 15.2917 0.708496 12.0271 0.708496 8.00001ZM8.8335 4.66668C8.8335 5.12691 8.4604 5.50001 8.00016 5.50001C7.53993 5.50001 7.16683 5.12691 7.16683 4.66668C7.16683 4.20644 7.53993 3.83334 8.00016 3.83334C8.4604 3.83334 8.8335 4.20644 8.8335 4.66668ZM8.00016 6.95834C8.34534 6.95834 8.62516 7.23817 8.62516 7.58334V11.75C8.62516 12.0952 8.34534 12.375 8.00016 12.375C7.65498 12.375 7.37516 12.0952 7.37516 11.75V7.58334C7.37516 7.23817 7.65498 6.95834 8.00016 6.95834Z" fill="#8E8E8E"/>
</svg>
