<svg width="60" height="60" viewBox="0 0 60 60" fill="none" xmlns="http://www.w3.org/2000/svg">
<path fill-rule="evenodd" clip-rule="evenodd" d="M0.104248 30C0.104248 13.8917 13.4891 0.833332 30.0001 0.833332C46.5111 0.833332 59.8959 13.8917 59.8959 30C59.8959 46.1083 46.5111 59.1667 30.0001 59.1667C13.4891 59.1667 0.104248 46.1083 0.104248 30ZM33.4167 16.6667C33.4167 18.5076 31.8871 20 30.0001 20C28.1131 20 26.5834 18.5076 26.5834 16.6667C26.5834 14.8257 28.1131 13.3333 30.0001 13.3333C31.8871 13.3333 33.4167 14.8257 33.4167 16.6667ZM30.0001 25.8333C31.4153 25.8333 32.5626 26.9526 32.5626 28.3333V45C32.5626 46.3807 31.4153 47.5 30.0001 47.5C28.5849 47.5 27.4376 46.3807 27.4376 45V28.3333C27.4376 26.9526 28.5849 25.8333 30.0001 25.8333Z" fill="#303030"/>
</svg>
