<svg width="11" height="12" viewBox="0 0 11 12" fill="none" xmlns="http://www.w3.org/2000/svg">
<path fill-rule="evenodd" clip-rule="evenodd" d="M0.03125 6C0.03125 2.97969 2.47969 0.53125 5.5 0.53125C8.52031 0.53125 10.9688 2.97969 10.9688 6C10.9688 9.02031 8.52031 11.4687 5.5 11.4688C2.47969 11.4688 0.03125 9.02031 0.03125 6ZM6.125 3.5C6.125 3.84518 5.84518 4.125 5.5 4.125C5.15482 4.125 4.875 3.84518 4.875 3.5C4.875 3.15482 5.15482 2.875 5.5 2.875C5.84518 2.875 6.125 3.15482 6.125 3.5ZM5.5 5.21875C5.75888 5.21875 5.96875 5.42862 5.96875 5.6875V8.8125C5.96875 9.07138 5.75888 9.28125 5.5 9.28125C5.24112 9.28125 5.03125 9.07138 5.03125 8.8125V5.6875C5.03125 5.42862 5.24112 5.21875 5.5 5.21875Z" fill="#FE3876"/>
</svg>
