<svg width="67" height="67" viewBox="0 0 67 67" fill="#E72A25" xmlns="http://www.w3.org/2000/svg">
<path d="M33.333 8.18939e-05C26.7172 0.0297204 20.2584 2.01863 14.7719 5.71576C9.28542 9.41289 5.01717 14.6525 2.50591 20.7733C-0.00535297 26.8941 -0.647064 33.6216 0.661774 40.1068C1.97061 46.5919 5.17133 52.544 9.85993 57.2117C14.5485 61.8793 20.5148 65.0534 27.0058 66.3333C33.4967 67.6131 40.2213 66.9413 46.3308 64.4027C52.4403 61.8641 57.6608 57.5725 61.3334 52.0696C65.0059 46.5666 66.9659 40.099 66.966 33.4831C66.9459 24.583 63.3912 16.0555 57.0838 9.77623C50.7764 3.497 42.2331 -0.0195662 33.333 8.18939e-05V8.18939e-05ZM45.733 42.8581C46.0416 43.1672 46.215 43.5862 46.215 44.0231C46.215 44.4599 46.0416 44.8789 45.733 45.1881L45.107 45.8111C44.7951 46.1187 44.3746 46.2911 43.9365 46.2911C43.4984 46.2911 43.0779 46.1187 42.766 45.8111L33.349 36.4361L23.929 45.8111C23.6171 46.1187 23.1966 46.2911 22.7585 46.2911C22.3204 46.2911 21.8999 46.1187 21.588 45.8111L20.962 45.1881C20.6534 44.8789 20.4801 44.4599 20.4801 44.0231C20.4801 43.5862 20.6534 43.1672 20.962 42.8581L30.379 33.4831L20.962 24.1081C20.6534 23.7989 20.4801 23.3799 20.4801 22.9431C20.4801 22.5062 20.6534 22.0872 20.962 21.7781L21.588 21.1551C21.8999 20.8475 22.3204 20.675 22.7585 20.675C23.1966 20.675 23.6171 20.8475 23.929 21.1551L33.346 30.5301L42.763 21.1551C43.0749 20.8475 43.4954 20.675 43.9335 20.675C44.3716 20.675 44.7921 20.8475 45.104 21.1551L45.73 21.7781C46.0386 22.0872 46.212 22.5062 46.212 22.9431C46.212 23.3799 46.0386 23.7989 45.73 24.1081L36.313 33.4831L45.733 42.8581Z" fill="#E72A25"/>
</svg>
