<svg width="21" height="17" viewBox="0 0 21 17" fill="none" xmlns="http://www.w3.org/2000/svg">
<path fill-rule="evenodd" clip-rule="evenodd" d="M5.57034 0.85266C8.8506 0.567513 12.1494 0.567513 15.4297 0.852659L17.0028 0.989411C18.5081 1.12026 19.7276 2.26573 19.9522 3.75988C20.4248 6.90229 20.4248 10.0977 19.9522 13.2401C19.9109 13.515 19.8359 13.7781 19.7316 14.0252C19.6625 14.1891 19.4492 14.214 19.3296 14.0824L14.7239 9.01614C14.5158 8.78724 14.1922 8.70268 13.8988 8.80051L11.2625 9.67927L7.43807 5.3768C7.29512 5.21598 7.09218 5.12124 6.8771 5.11492C6.66203 5.1086 6.45387 5.19126 6.30173 5.34341L1.18285 10.4623C1.02531 10.6198 0.756619 10.5196 0.744058 10.2971C0.620896 8.11599 0.722132 5.92535 1.04777 3.75988C1.27245 2.26573 2.4919 1.12026 3.99718 0.989411L5.57034 0.85266ZM12.5833 5.375C12.5833 4.51206 13.2829 3.8125 14.1458 3.8125C15.0088 3.8125 15.7083 4.51206 15.7083 5.375C15.7083 6.23795 15.0088 6.9375 14.1458 6.9375C13.2829 6.9375 12.5833 6.23795 12.5833 5.375Z" fill="#303030"/>
<path d="M1.08472 12.7701C1.02706 12.8278 0.999665 12.9091 1.01115 12.9899C1.02302 13.0733 1.03523 13.1567 1.04777 13.2401C1.27245 14.7343 2.4919 15.8797 3.99718 16.0106L5.57034 16.1473C8.85059 16.4325 12.1494 16.4325 15.4297 16.1473L17.0028 16.0106C17.4452 15.9721 17.8628 15.8461 18.2378 15.6493C18.3799 15.5747 18.4038 15.3868 18.2959 15.2681L14.0242 10.5693C13.9548 10.493 13.847 10.4648 13.7491 10.4974L11.2679 11.3245C10.9714 11.4233 10.6445 11.3359 10.4369 11.1024L7.00419 7.24056C6.90465 7.12857 6.73136 7.12348 6.62541 7.22943L1.08472 12.7701Z" fill="#303030"/>
</svg>
