<svg width="62" height="74" viewBox="0 0 62 74" fill="none" xmlns="http://www.w3.org/2000/svg">
<g clip-path="url(#clip0_2976_35804)">
<path d="M48.5425 51.97L56.0425 64.97H47.8825L43.8125 72.03L36.3125 59.04" stroke="#FE3876" stroke-width="2" stroke-linecap="round" stroke-linejoin="round"/>
<path d="M10.7832 51.97L3.2832 64.97H11.4432L15.5232 72.03L23.0232 59.04" stroke="#FE3876" stroke-width="2" stroke-linecap="round" stroke-linejoin="round"/>
<path d="M21.7523 10.0401L22.3023 8.80005C25.1323 2.39005 34.2223 2.39005 37.0523 8.80005L37.6023 10.0401C39.0223 13.2501 42.3523 15.1801 45.8423 14.8001L47.1923 14.6501C54.1523 13.8901 58.7023 21.7701 54.5623 27.4201L53.7623 28.5101C51.6923 31.3401 51.6923 35.2001 53.7623 38.0301L54.5623 39.1201C58.7023 44.7701 54.1523 52.6501 47.1923 51.8901L45.8423 51.7401C42.3523 51.3601 39.0123 53.2901 37.6023 56.5001L37.0523 57.7401C34.2223 64.1501 25.1323 64.1501 22.3023 57.7401L21.7523 56.5001C20.3323 53.2901 17.0023 51.3601 13.5123 51.7401L12.1623 51.8901C5.20231 52.6501 0.652312 44.7701 4.79231 39.1201L5.59231 38.0301C7.66231 35.2001 7.66231 31.3401 5.59231 28.5101L4.79231 27.4201C0.652312 21.7701 5.20231 13.8901 12.1623 14.6501L13.5123 14.8001C17.0023 15.1801 20.3423 13.2501 21.7523 10.0401Z" fill="white" stroke="white" stroke-width="6" stroke-linecap="round" stroke-linejoin="round"/>
<path d="M21.7523 10.0401L22.3023 8.80005C25.1323 2.39005 34.2223 2.39005 37.0523 8.80005L37.6023 10.0401C39.0223 13.2501 42.3523 15.1801 45.8423 14.8001L47.1923 14.6501C54.1523 13.8901 58.7023 21.7701 54.5623 27.4201L53.7623 28.5101C51.6923 31.3401 51.6923 35.2001 53.7623 38.0301L54.5623 39.1201C58.7023 44.7701 54.1523 52.6501 47.1923 51.8901L45.8423 51.7401C42.3523 51.3601 39.0123 53.2901 37.6023 56.5001L37.0523 57.7401C34.2223 64.1501 25.1323 64.1501 22.3023 57.7401L21.7523 56.5001C20.3323 53.2901 17.0023 51.3601 13.5123 51.7401L12.1623 51.8901C5.20231 52.6501 0.652312 44.7701 4.79231 39.1201L5.59231 38.0301C7.66231 35.2001 7.66231 31.3401 5.59231 28.5101L4.79231 27.4201C0.652312 21.7701 5.20231 13.8901 12.1623 14.6501L13.5123 14.8001C17.0023 15.1801 20.3423 13.2501 21.7523 10.0401Z" fill="white" stroke="#FE3876" stroke-width="2" stroke-linecap="round" stroke-linejoin="round"/>
<path d="M46.2334 33.28C46.2334 41.11 38.7956 47.45 29.6099 47.45C20.4241 47.45 12.9863 41.11 12.9863 33.28C12.9863 25.45 20.4241 19.11 29.6099 19.11C38.7956 19.11 46.2334 25.46 46.2334 33.28Z" stroke="#FE3876" stroke-width="2" stroke-miterlimit="10"/>
<path d="M46.235 22.26L30.726 40.06C30.1746 40.69 29.0601 40.68 28.5322 40.03L20.4844 30.22" stroke="white" stroke-width="8" stroke-linecap="round" stroke-linejoin="round"/>
<path d="M46.235 22.26L30.726 40.06C30.1746 40.69 29.0601 40.68 28.5322 40.03L20.4844 30.22" stroke="#FE3876" stroke-width="2" stroke-linecap="round" stroke-linejoin="round"/>
</g>
<defs>
<clipPath id="clip0_2976_35804">
<rect width="61.0362" height="74" fill="white" transform="translate(0.164062)"/>
</clipPath>
</defs>
</svg>
