<svg width="68" height="68" viewBox="0 0 68 68" fill="none" xmlns="http://www.w3.org/2000/svg">
<g clip-path="url(#clip0_2976_35823)">
<path d="M43.4004 37.56C54.8404 37.56 64.1204 28.7 64.1204 17.76V12.4H47.1804" stroke="#FE3876" stroke-width="2" stroke-linecap="round" stroke-linejoin="round"/>
<path d="M22.47 37.56C11.03 37.56 1.75 28.7 1.75 17.77V12.41H18.69" stroke="#FE3876" stroke-width="2" stroke-linecap="round" stroke-linejoin="round"/>
<path d="M53.7494 4C53.7494 28.14 44.4294 47.72 32.9294 47.72C21.4294 47.72 12.1094 28.14 12.1094 4H53.7594H53.7494Z" fill="white" stroke="white" stroke-width="8" stroke-linecap="round" stroke-linejoin="round"/>
<path d="M53.7494 4C53.7494 26.94 44.4294 45.54 32.9294 45.54C21.4294 45.54 12.1094 26.94 12.1094 4H53.7594H53.7494Z" stroke="#FE3876" stroke-width="2" stroke-linecap="round" stroke-linejoin="round"/>
<path d="M32.9297 45.54V61.36" stroke="#FE3876" stroke-width="2" stroke-linecap="round" stroke-linejoin="round"/>
<path d="M18.7402 66.36H48.4002" stroke="#FE3876" stroke-width="2" stroke-linecap="round" stroke-linejoin="round"/>
<path d="M22.9004 61.36H44.2504" stroke="#FE3876" stroke-width="2" stroke-linecap="round" stroke-linejoin="round"/>
<path d="M32.9296 26.94L26.8196 31.4C26.2896 31.78 25.5796 31.27 25.7896 30.65L28.1396 23.46L22.0096 19.03C21.4796 18.65 21.7496 17.81 22.3996 17.82L29.9596 17.84L32.2796 10.64C32.4796 10.02 33.3596 10.02 33.5596 10.64L35.8796 17.84L43.4396 17.82C44.0896 17.82 44.3596 18.65 43.8296 19.03L37.6996 23.46L40.0496 30.65C40.2496 31.27 39.5396 31.78 39.0196 31.4L32.9096 26.94H32.9296Z" fill="white" stroke="#FE3876" stroke-width="2" stroke-linecap="round" stroke-linejoin="round"/>
</g>
<defs>
<clipPath id="clip0_2976_35823">
<rect width="67.2433" height="68" fill="white" transform="translate(0.697266)"/>
</clipPath>
</defs>
</svg>
