<svg width="28" height="28" viewBox="0 0 28 28" fill="#010102" xmlns="http://www.w3.org/2000/svg">
<path d="M26.82 23.88L20.59 17.65C23.8 12.52 22.25 5.77 17.12 2.56C11.99 -0.649997 5.24 0.900003 2.03 6.03C-1.18 11.16 0.370005 17.91 5.5 21.12C9.22001 23.45 13.97 23.33 17.57 20.83L23.73 26.99C24.59 27.85 25.97 27.85 26.83 26.99C27.68 26.12 27.68 24.74 26.82 23.88ZM11.31 19.23C7.22 19.23 3.9 15.92 3.9 11.83C3.9 7.73999 7.21001 4.42 11.3 4.42C15.39 4.42 18.71 7.73001 18.71 11.82C18.71 15.92 15.4 19.23 11.31 19.23Z"/>
</svg>
