<svg width="14" height="17" viewBox="0 0 14 17" fill="none" xmlns="http://www.w3.org/2000/svg">
<path d="M7.63746 3.45237H7.63755L7.63738 3.4483L7.60755 2.71514L7.87752 2.99638L7.87772 2.99659L8.90399 4.07184C9.01942 4.20068 9.1823 4.26349 9.34254 4.26349C9.6696 4.26349 9.93606 4.02454 9.93606 3.69163C9.93606 3.517 9.85763 3.38652 9.74391 3.27472L9.74392 3.27471L9.74261 3.27347L7.45819 1.10749C7.30781 0.95988 7.16884 0.9 6.99662 0.9C6.8302 0.9 6.69192 0.960614 6.53616 1.10644L6.5357 1.10687L4.25063 3.27347L4.25062 3.27346L4.24933 3.27472C4.13281 3.38927 4.06394 3.5201 4.06394 3.69163C4.06394 4.02186 4.31409 4.26349 4.6507 4.26349C4.80207 4.26349 4.97931 4.20208 5.09612 4.07172L6.11548 2.99663L6.39257 2.71222L6.36262 3.4483L6.36253 3.4483V3.45237V10.2778C6.36253 10.6146 6.65314 10.8962 6.99662 10.8962C7.33845 10.8962 7.63746 10.6162 7.63746 10.2778V3.45237ZM8.99099 5.14679H8.89099V5.24679V6.31679V6.41679H8.99099H10.8569C11.1744 6.41679 11.4095 6.50173 11.5653 6.65411C11.7206 6.80612 11.8115 7.03951 11.8115 7.36686V13.8799C11.8115 14.2073 11.7206 14.4407 11.5653 14.5927C11.4095 14.7451 11.1744 14.83 10.8569 14.83H3.13634C2.81522 14.83 2.58225 14.745 2.42931 14.5932C2.27651 14.4415 2.18845 14.2082 2.18845 13.8799V7.36686C2.18845 7.03856 2.27651 6.80525 2.42931 6.65361C2.58225 6.50183 2.81522 6.41679 3.13634 6.41679H5.00901H5.10901V6.31679V5.24679V5.14679H5.00901H3.12282C2.40146 5.14679 1.84132 5.32321 1.46187 5.69178C1.08189 6.06087 0.9 6.60616 0.9 7.30704V13.9397C0.9 14.6406 1.08189 15.1859 1.46187 15.555C1.84132 15.9236 2.40146 16.1 3.12282 16.1H10.8772C11.5985 16.1 12.1587 15.9236 12.5381 15.555C12.9181 15.1859 13.1 14.6406 13.1 13.9397V7.30704C13.1 6.60616 12.9181 6.06087 12.5381 5.69178C12.1587 5.32321 11.5985 5.14679 10.8772 5.14679H8.99099Z" fill="#FE3876" stroke="#FE3876" stroke-width="0.2"/>
</svg>
