<svg width="29" height="28" viewBox="0 0 29 28" fill="#010102" xmlns="http://www.w3.org/2000/svg">
<path d="M1.09003 12.26L7.13001 17.37L5.25001 25.06C5.03001 25.95 5.57003 26.85 6.46003 27.07C6.90003 27.18 7.37001 27.1 7.75001 26.86L14.48 22.7L21.21 26.86C22 27.34 23.03 27.08 23.51 26.29C23.73 25.92 23.81 25.48 23.71 25.05L21.83 17.36L27.87 12.24C28.58 11.65 28.67 10.59 28.07 9.89001C27.78 9.54001 27.36 9.32999 26.91 9.29999L19 8.70999L16.02 1.39001C15.65 0.540013 14.66 0.140008 13.81 0.510008C13.41 0.680008 13.1 1.00001 12.93 1.39001L9.95002 8.70999L2.03998 9.29999C1.11998 9.36999 0.430006 10.17 0.500006 11.09C0.540006 11.56 0.750033 11.97 1.09003 12.26Z"/>
</svg>
