<svg width="21" height="21" viewBox="0 0 21 21" fill="none" xmlns="http://www.w3.org/2000/svg">
<path d="M10.5006 0.841003C8.5899 0.841003 6.72209 1.40755 5.13338 2.46901C3.54468 3.53046 2.30643 5.03915 1.57523 6.80428C0.84403 8.56942 0.652714 10.5117 1.02548 12.3856C1.39824 14.2594 2.31834 15.9807 3.66942 17.3317C5.02051 18.6826 6.74189 19.6027 8.6159 19.9754C10.4899 20.3481 12.4324 20.1568 14.1976 19.4257C15.9629 18.6945 17.4717 17.4564 18.5333 15.8678C19.5948 14.2792 20.1614 12.4116 20.1614 10.501C20.1614 7.93901 19.1436 5.48195 17.3318 3.67035C15.5201 1.85875 13.0628 0.841003 10.5006 0.841003M14.7189 14.0559C14.6651 14.1513 14.5931 14.2352 14.5069 14.3027C14.4207 14.3703 14.322 14.4202 14.2165 14.4496C14.111 14.479 14.0007 14.4874 13.892 14.4742C13.7833 14.461 13.6782 14.4265 13.5828 14.3727L10.091 12.3982C10.0817 12.3928 10.074 12.3859 10.0647 12.3797C10.0401 12.3643 10.0163 12.3475 9.99362 12.3294C9.97198 12.3132 9.95189 12.297 9.9318 12.2784C9.91269 12.2602 9.89463 12.2408 9.8777 12.2205C9.85915 12.1996 9.84137 12.1795 9.82514 12.1579C9.80891 12.1362 9.79655 12.1131 9.78263 12.0899C9.76882 12.0674 9.75618 12.0442 9.74476 12.0203C9.73353 11.9951 9.72372 11.9693 9.71539 11.943C9.70595 11.9178 9.69795 11.892 9.69144 11.8658C9.68525 11.8403 9.68139 11.8132 9.6783 11.7885C9.67335 11.7599 9.67026 11.731 9.66902 11.7019C9.66902 11.6911 9.66902 11.6811 9.66902 11.6702V4.84874C9.66562 4.73695 9.6847 4.62561 9.72514 4.52133C9.76558 4.41705 9.82654 4.32195 9.90442 4.24168C9.9823 4.1614 10.0755 4.09757 10.1785 4.05399C10.2815 4.0104 10.3922 3.98794 10.5041 3.98794C10.616 3.98794 10.7267 4.0104 10.8297 4.05399C10.9327 4.09757 11.0259 4.1614 11.1038 4.24168C11.1817 4.32195 11.2426 4.41705 11.2831 4.52133C11.3235 4.62561 11.3426 4.73695 11.3392 4.84874V11.1811L14.4067 12.9152C14.5993 13.0241 14.7408 13.205 14.8001 13.4182C14.8593 13.6314 14.8315 13.8593 14.7228 14.052L14.7189 14.0559Z" fill="#545454"/>
</svg>
