<svg width="21" height="21" viewBox="0 0 13 13" fill="none" xmlns="http://www.w3.org/2000/svg">
<path d="M7.21891 1.70833C7.21891 1.31137 6.89712 0.989578 6.50016 0.989578C6.10321 0.989578 5.78141 1.31137 5.78141 1.70833V5.78124H1.7085C1.31154 5.78124 0.989746 6.10304 0.989746 6.49999C0.989746 6.89695 1.31154 7.21874 1.7085 7.21874H5.78141V11.2917C5.78141 11.6886 6.10321 12.0104 6.50016 12.0104C6.89712 12.0104 7.21891 11.6886 7.21891 11.2917V7.21874H11.2918C11.6888 7.21874 12.0106 6.89695 12.0106 6.49999C12.0106 6.10304 11.6888 5.78124 11.2918 5.78124H7.21891V1.70833Z" fill="#545454"/>
</svg>
