<svg width="32" height="21" viewBox="0 0 32 21" fill="none" xmlns="http://www.w3.org/2000/svg">
<path fill-rule="evenodd" clip-rule="evenodd" d="M10.9857 3.62233C12.3211 1.49823 14.644 0.0900879 17.288 0.0900879C21.2742 0.0900879 24.5341 3.2904 24.7756 7.33118C24.8552 7.32806 24.9351 7.32649 25.0153 7.32649C28.4472 7.32649 31.2293 10.1904 31.2293 13.7233C31.2293 17.2561 28.4472 20.1201 25.0153 20.1201L8.91683 20.12C4.41801 20.12 0.770996 16.3658 0.770996 11.7346C0.770996 7.10349 4.41801 3.34922 8.91683 3.34922C9.6307 3.34922 10.3243 3.444 10.9857 3.62233ZM20.3715 11.1833C20.0049 11.655 19.3363 11.7315 18.878 11.3541L17.0627 9.85908V14.875C17.0627 15.4791 16.587 15.9688 16.0002 15.9688C15.4134 15.9688 14.9377 15.4791 14.9377 14.875V9.85901L13.1222 11.3541C12.664 11.7315 11.9953 11.655 11.6288 11.1833C11.2622 10.7116 11.3365 10.0233 11.7947 9.64595L15.3326 6.73241C15.5129 6.58235 15.7418 6.49177 15.9912 6.48965L16.0002 6.48961L16.0036 6.48962C16.2573 6.49044 16.4901 6.58283 16.6724 6.73636L20.2055 9.64595C20.6637 10.0233 20.738 10.7116 20.3715 11.1833Z" fill="#FE3876"/>
</svg>
