<svg width="33" height="33" viewBox="0 0 33 33" fill="white" xmlns="http://www.w3.org/2000/svg">
<path d="M32.5 16.4991C32.5 25.3352 25.3366 32.4983 16.5 32.4983C7.66342 32.4983 0.5 25.3352 0.5 16.4991C0.5 7.66308 7.66342 0.5 16.5 0.5C25.3366 0.5 32.5 7.66308 32.5 16.4991Z" stroke="#303030"/>
<mask id="mask0_717_8057" style="mask-type:alpha" maskUnits="userSpaceOnUse" x="6" y="6" width="21" height="27">
<path d="M26.4001 28.2987H26.3932V33H6.60527V28.2356H6.6001C6.85872 23.8162 9.03803 20.8325 13.1725 19.2584C9.36906 16.9296 8.85527 12.0935 11.357 9.06256C13.9035 5.97911 18.4553 5.75849 21.2398 8.58629C22.6587 10.0291 23.3277 11.7888 23.188 13.8217C23.026 16.203 21.8518 17.989 19.8191 19.2777C21.7949 19.9255 23.3811 21.0339 24.5811 22.6798C25.7915 24.3362 26.3811 26.208 26.4001 28.2987Z" fill="#545454"/>
</mask>
<g mask="url(#mask0_717_8057)">
<path d="M32.5 16.4991C32.5 25.3352 25.3366 32.4983 16.5 32.4983C7.66342 32.4983 0.5 25.3352 0.5 16.4991C0.5 7.66308 7.66342 0.5 16.5 0.5C25.3366 0.5 32.5 7.66308 32.5 16.4991Z" fill="#303030" stroke="#303030"/>
</g>
</svg>
