<svg width="21" height="21" viewBox="0 0 15 20" fill="#545454" xmlns="http://www.w3.org/2000/svg">
<path d="M14.2398 16.1603H14.2351V17.5795C14.2351 18.6841 13.3397 19.5795 12.2351 19.5795H2.80331C1.69874 19.5795 0.803316 18.6841 0.803316 17.5795V16.1144H0.799805C0.975353 12.9002 2.45464 10.7302 5.26108 9.5854C2.67935 7.89169 2.33059 4.37439 4.02873 2.17002C5.7573 -0.0725466 8.84695 -0.233003 10.737 1.82364C11.7002 2.87297 12.1543 4.1528 12.0595 5.63129C11.9495 7.3632 11.1525 8.66213 9.77268 9.5994C11.1139 10.0706 12.1906 10.8767 13.0051 12.0737C13.8267 13.2784 14.2269 14.6398 14.2398 16.1603Z" fill="#545454"/>
</svg>
