<svg width="22" height="15" viewBox="0 0 22 15" fill="none" xmlns="http://www.w3.org/2000/svg">
<path d="M6.23992 0.0749224C6.57043 0.0990556 6.8416 0.346032 6.89643 0.672856L8.62177 10.9581L10.7675 3.46881C10.8558 3.1604 11.1379 2.9479 11.4587 2.94801C11.7795 2.94813 12.0614 3.16084 12.1495 3.46931L13.6045 8.56168L14.4393 7.13677C14.5682 6.91662 14.8043 6.78135 15.0594 6.78135H16.8389C17.1442 5.80933 18.0523 5.10426 19.1251 5.10426C20.4483 5.10426 21.5209 6.17691 21.5209 7.5001C21.5209 8.82328 20.4483 9.89593 19.1251 9.89593C18.0523 9.89593 17.1442 9.19086 16.8389 8.21885H15.4714L13.9952 10.7384C13.8498 10.9867 13.5703 11.1243 13.2849 11.0882C12.9994 11.0521 12.763 10.8492 12.684 10.5726L11.4575 6.27973L9.12916 14.4064C9.03667 14.7292 8.73297 14.945 8.39769 14.926C8.06241 14.9071 7.78492 14.6585 7.72937 14.3273L5.96656 3.81873L4.70813 7.72071C4.61237 8.01761 4.33603 8.21885 4.02407 8.21885H0.916748C0.519793 8.21885 0.197998 7.89705 0.197998 7.5001C0.197998 7.10314 0.519793 6.78135 0.916748 6.78135H3.50067L5.50353 0.571149C5.60524 0.255756 5.90941 0.0507892 6.23992 0.0749224Z" fill="#545454"/>
</svg>
