<svg width="23" height="23" viewBox="0 0 23 23" fill="none" xmlns="http://www.w3.org/2000/svg">
<path fill-rule="evenodd" clip-rule="evenodd" d="M18.9272 11.4999C18.9272 11.103 18.6054 10.7812 18.2084 10.7812H4.79175C4.39479 10.7812 4.073 11.103 4.073 11.4999C4.073 11.8969 4.39479 12.2187 4.79175 12.2187H18.2084C18.6054 12.2187 18.9272 11.8969 18.9272 11.4999Z" fill="#FE3876"/>
<path fill-rule="evenodd" clip-rule="evenodd" d="M18.9272 6.70825C18.9272 6.3113 18.6054 5.9895 18.2084 5.9895H4.79175C4.39479 5.9895 4.073 6.3113 4.073 6.70825C4.073 7.10521 4.39479 7.427 4.79175 7.427H18.2084C18.6054 7.427 18.9272 7.10521 18.9272 6.70825Z" fill="#FE3876"/>
<path fill-rule="evenodd" clip-rule="evenodd" d="M18.9272 16.2916C18.9272 15.8946 18.6054 15.5728 18.2084 15.5728H4.79175C4.39479 15.5728 4.073 15.8946 4.073 16.2916C4.073 16.6885 4.39479 17.0103 4.79175 17.0103H18.2084C18.6054 17.0103 18.9272 16.6885 18.9272 16.2916Z" fill="#FE3876"/>
</svg>
