<svg width="19" height="18" viewBox="0 0 19 18" fill="none" xmlns="http://www.w3.org/2000/svg">
<path d="M10.4956 0.432606C9.92109 0.132762 9.13196 0.128259 8.55344 0.427037C6.08225 1.70329 3.84293 3.16554 1.88221 4.78571C1.62075 5.00175 1.44773 5.30414 1.45069 5.64976C1.45364 5.9942 1.63059 6.29322 1.89119 6.5063C3.83613 8.0966 6.07797 9.56057 8.50424 10.8269C9.07875 11.1267 9.86788 11.1312 10.4464 10.8325C12.9176 9.5562 15.1569 8.09396 17.1176 6.47379C17.3791 6.25774 17.5521 5.95536 17.5491 5.60974C17.5462 5.26529 17.3692 4.96627 17.1086 4.75319C15.1637 3.1629 12.9219 1.69892 10.4956 0.432606Z" fill="#545454"/>
<path d="M18.0847 10.1592C18.4214 9.949 18.524 9.50562 18.3137 9.1689C18.1035 8.83218 17.6601 8.72964 17.3234 8.93986L11.4707 12.5939C10.9493 12.9194 10.241 13.1009 9.49975 13.1009C8.75853 13.1009 8.05014 12.9195 7.52866 12.5941L1.74001 8.98141C1.40326 8.77125 0.959892 8.87387 0.749725 9.21062C0.539559 9.54737 0.642178 9.99074 0.978931 10.2009L6.76758 13.8136C7.5619 14.3093 8.54731 14.5385 9.49984 14.5384C10.4524 14.5383 11.4377 14.3091 12.2319 13.8132L18.0847 10.1592Z" fill="#545454"/>
<path d="M18.0848 13.7575C18.4215 13.5472 18.524 13.1038 18.3137 12.7671C18.1034 12.4304 17.66 12.3279 17.3233 12.5382L12.2548 15.7034C11.5142 16.166 10.5234 16.416 9.49971 16.416C8.47602 16.4161 7.48518 16.1662 6.74437 15.7037L1.74009 12.5797C1.40336 12.3695 0.959978 12.4721 0.749771 12.8088C0.539564 13.1456 0.64213 13.5889 0.978858 13.7991L5.98314 16.9231C6.99685 17.556 8.26478 17.8536 9.49979 17.8535C10.7348 17.8535 12.0027 17.5557 13.0162 16.9227L18.0848 13.7575Z" fill="#545454"/>
</svg>
