<svg width="70" height="69" viewBox="0 0 70 69" fill="none" xmlns="http://www.w3.org/2000/svg">
<path fill-rule="evenodd" clip-rule="evenodd" d="M14.3911 46.7188C15.582 46.7188 16.5474 47.6841 16.5474 48.875V54.625C16.5474 55.022 16.8692 55.3438 17.2661 55.3438H51.7661C52.1631 55.3438 52.4849 55.022 52.4849 54.625V48.875C52.4849 47.6841 53.4502 46.7188 54.6411 46.7188C55.832 46.7188 56.7974 47.6841 56.7974 48.875V54.625C56.7974 57.4037 54.5448 59.6562 51.7661 59.6562H17.2661C14.4874 59.6562 12.2349 57.4037 12.2349 54.625V48.875C12.2349 47.6841 13.2002 46.7188 14.3911 46.7188Z" fill="#FE3876"/>
<path d="M30.8877 10.7812C29.4088 10.7812 28.1752 11.9115 28.0461 13.3847C27.6043 18.4238 27.5264 23.4876 27.8127 28.5368C27.1026 28.576 26.3928 28.6215 25.6833 28.6732L21.401 28.9854C19.7499 29.1057 18.8269 30.9468 19.7183 32.3418C22.7716 37.1203 26.706 41.2745 31.3116 44.5829L33.0272 45.8153C33.917 46.4545 35.1155 46.4545 36.0053 45.8153L37.721 44.5829C42.3265 41.2745 46.2609 37.1203 49.3142 32.3418C50.2056 30.9468 49.2826 29.1058 47.6315 28.9854L43.3492 28.6732C42.6397 28.6215 41.9299 28.576 41.2198 28.5368C41.5061 23.4876 41.4282 18.4237 40.9865 13.3847C40.8573 11.9115 39.6237 10.7812 38.1448 10.7812H30.8877Z" fill="#FE3876"/>
</svg>
