<svg width="70" height="69" viewBox="0 0 70 69" fill="none" xmlns="http://www.w3.org/2000/svg">
<path d="M20.5986 19.7868C24.3749 15.9974 29.5934 13.6562 35.3628 13.6562C46.8745 13.6562 56.2065 22.9883 56.2065 34.5C56.2065 46.0117 46.8745 55.3438 35.3628 55.3438C23.8511 55.3438 14.519 46.0117 14.519 34.5C14.519 33.3091 13.5537 32.3438 12.3628 32.3438C11.1719 32.3438 10.2065 33.3091 10.2065 34.5C10.2065 48.3934 21.4694 59.6562 35.3628 59.6562C49.2562 59.6562 60.519 48.3934 60.519 34.5C60.519 20.6066 49.2562 9.34375 35.3628 9.34375C28.401 9.34375 22.0963 12.1745 17.5439 16.7426C17.4707 16.816 17.404 16.8934 17.3436 16.974L13.7281 13.3585C13.3337 12.9641 12.7467 12.8335 12.2222 13.0234C11.6978 13.2132 11.3305 13.6894 11.28 14.2449L10.2635 25.426C10.2249 25.8508 10.377 26.2709 10.6787 26.5726C10.9803 26.8743 11.4004 27.0263 11.8253 26.9877L23.0064 25.9713C23.5619 25.9208 24.038 25.5535 24.2279 25.029C24.4178 24.5046 24.2871 23.9176 23.8927 23.5232L20.3619 19.9924C20.4445 19.9305 20.5236 19.862 20.5986 19.7868Z" fill="#FE3876"/>
<path d="M37.519 20.125C37.519 18.9341 36.5537 17.9688 35.3628 17.9688C34.1719 17.9688 33.2065 18.9341 33.2065 20.125V34.5C33.2065 35.2435 33.5895 35.9345 34.22 36.3285L42.845 41.7191C43.8548 42.3503 45.1851 42.0433 45.8163 41.0334C46.4474 40.0236 46.1405 38.6933 45.1306 38.0621L37.519 33.3049V20.125Z" fill="#FE3876"/>
</svg>
