<svg width="70" height="69" viewBox="0 0 70 69" fill="none" xmlns="http://www.w3.org/2000/svg">
<path fill-rule="evenodd" clip-rule="evenodd" d="M40.0723 16.6991C40.0723 17.9826 41.1128 19.023 42.3962 19.023L50.1197 19.023V26.7466C50.1197 28.03 51.1602 29.0705 52.4436 29.0705C53.7271 29.0705 54.7675 28.03 54.7675 26.7466V16.6991C54.7675 15.4157 53.7271 14.3752 52.4436 14.3752L42.3962 14.3752C41.1128 14.3752 40.0723 15.4157 40.0723 16.6991Z" fill="#FE3876"/>
<path fill-rule="evenodd" clip-rule="evenodd" d="M52.4436 39.3838C51.1601 39.3838 50.1197 40.4242 50.1197 41.7077L50.1197 49.4312L42.3961 49.4312C41.1127 49.4312 40.0722 50.4716 40.0722 51.7551C40.0722 53.0385 41.1127 54.079 42.3961 54.079L52.4436 54.079C53.727 54.079 54.7675 53.0385 54.7675 51.7551L54.7675 41.7077C54.7675 40.4242 53.727 39.3838 52.4436 39.3838Z" fill="#FE3876"/>
<path fill-rule="evenodd" clip-rule="evenodd" d="M17.3877 39.3838C18.6712 39.3838 19.7116 40.4242 19.7116 41.7077L19.7116 49.4312L27.4351 49.4312C28.7186 49.4312 29.759 50.4716 29.759 51.7551C29.759 53.0385 28.7186 54.079 27.4351 54.079L17.3877 54.079C16.1042 54.079 15.0638 53.0385 15.0638 51.7551L15.0638 41.7077C15.0638 40.4242 16.1042 39.3838 17.3877 39.3838Z" fill="#FE3876"/>
<path fill-rule="evenodd" clip-rule="evenodd" d="M29.759 16.6991C29.759 17.9826 28.7185 19.023 27.4351 19.023H19.7115L19.7115 26.7466C19.7115 28.03 18.6711 29.0705 17.3876 29.0705C16.1042 29.0705 15.0637 28.03 15.0637 26.7466L15.0637 16.6991C15.0637 15.4157 16.1042 14.3752 17.3876 14.3752L27.4351 14.3752C28.7185 14.3752 29.759 15.4157 29.759 16.6991Z" fill="#FE3876"/>
</svg>
